# xmcd
#
# Track frame offsets:
# 150
# 23814
# 42829
# 59640
# 83459
# 98139
# 113605
# 130008
# 144111
# 164991
# 180584
# 202416
# 234129
# 250183
# 266692
# 279082
# 297791
# 308521
#
# Disc length: 4321 seconds
#
# Revision: 0
# Processed by: cddbd v1.4PL0 Copyright (c) Steve Scherf et al.
# Submitted via: Axialis_AX_CDPlayer 2.6
#
DISCID=f110df12
DTITLE=Al Green - Love And Happiness - Disc 3
DYEAR=1900
DGENRE=
TTITLE0=Full Of Fire
TTITLE1=I'd Fly Away
TTITLE2=That's The Way It Is
TTITLE3=Together Again
TTITLE4=Let It Shine
TTITLE5=Sweet Song
TTITLE6=Have A Good Time
TTITLE7=Keep Me Cryin'
TTITLE8=Nothing Takes The Place Of You
TTITLE9=I Tried To Tell Myself
TTITLE10=Belle
TTITLE11=Georgia Boy
TTITLE12=Loving You
TTITLE13=All n' All
TTITLE14=Wait Here
TTITLE15=To Sir With Love
TTITLE16=King Of All
TTITLE17=Starting All Over Again
EXTD=
EXTT0=
EXTT1=
EXTT2=
EXTT3=
EXTT4=
EXTT5=
EXTT6=
EXTT7=
EXTT8=
EXTT9=
EXTT10=
EXTT11=
EXTT12=
EXTT13=
EXTT14=
EXTT15=
EXTT16=
EXTT17=
PLAYORDER=
